<?xml version="1.0" encoding="UTF-8" standalone="no"?>
<svg
   xmlns:dc="http://purl.org/dc/elements/1.1/"
   xmlns:cc="http://creativecommons.org/ns#"
   xmlns:rdf="http://www.w3.org/1999/02/22-rdf-syntax-ns#"
   xmlns:svg="http://www.w3.org/2000/svg"
   xmlns="http://www.w3.org/2000/svg"
   xmlns:sodipodi="http://sodipodi.sourceforge.net/DTD/sodipodi-0.dtd"
   xmlns:inkscape="http://www.inkscape.org/namespaces/inkscape"
   width="1024"
   height="768"
   id="svg3715"
   version="1.1"
   inkscape:version="1.0 (4035a4f, 2020-05-01)"
   viewBox="0 0 1024 768"
   sodipodi:docname="branding-1.svg"
   inkscape:export-filename="/home/user/synced/homebase/aqua/design/output/branding-1.png"
   inkscape:export-xdpi="96"
   inkscape:export-ydpi="96">
  <defs
     id="defs3717" />
  <sodipodi:namedview
     id="base"
     pagecolor="#ffffff"
     bordercolor="#666666"
     borderopacity="1.0"
     inkscape:pageopacity="0.0"
     inkscape:pageshadow="2"
     inkscape:zoom="0.51757813"
     inkscape:cx="541.6366"
     inkscape:cy="549.17977"
     inkscape:current-layer="layer1"
     inkscape:document-units="px"
     showgrid="false"
     inkscape:snap-text-baseline="true"
     inkscape:window-width="1362"
     inkscape:window-height="719"
     inkscape:window-x="0"
     inkscape:window-y="0"
     inkscape:window-maximized="1"
     showguides="true"
     inkscape:guide-bbox="true"
     inkscape:document-rotation="0">
    <sodipodi:guide
       id="guide1294"
       orientation="0,-1"
       position="471.50566,198.73585" />
    <sodipodi:guide
       id="guide1300"
       orientation="0,-1"
       position="262.30726,447.28838" />
    <sodipodi:guide
       id="guide1406"
       orientation="1,0"
       position="572.33392,396.8956" />
  </sodipodi:namedview>
  <metadata
     id="metadata3720">
    <rdf:RDF>
      <cc:Work
         rdf:about="">
        <dc:format>image/svg+xml</dc:format>
        <dc:type
           rdf:resource="http://purl.org/dc/dcmitype/StillImage" />
        <dc:title />
      </cc:Work>
    </rdf:RDF>
  </metadata>
  <g
     style="display:inline"
     id="layer1"
     inkscape:label="Layer 1"
     inkscape:groupmode="layer">
    <rect
       style="fill:#ffffff;fill-opacity:1"
       id="rect4244"
       width="1030"
       height="779"
       x="1"
       y="2.0000191" />
    <rect
       style="fill:#d8e4f9;fill-opacity:1;stroke:none"
       id="rect3812"
       width="86.00132"
       height="86.00132"
       x="861.43231"
       y="231.74457"
       ry="5"
       rx="5" />
    <flowRoot
       xml:space="preserve"
       id="flowRoot4636"
       style="font-style:normal;font-weight:normal;line-height:0.01%;font-family:sans-serif;letter-spacing:0px;word-spacing:0px;fill:#000000;fill-opacity:1;stroke:none;stroke-width:1px;stroke-linecap:butt;stroke-linejoin:miter;stroke-opacity:1"
       transform="translate(23.960934,-340.57856)"><flowRegion
         id="flowRegion4638"><rect
           id="rect4640"
           width="410"
           height="181"
           x="182"
           y="323" /></flowRegion><flowPara
         id="flowPara4642"
         style="font-size:40px;line-height:1.25"> </flowPara></flowRoot>
    <flowRoot
       xml:space="preserve"
       id="flowRoot4345"
       style="font-style:normal;font-weight:normal;line-height:0.01%;font-family:sans-serif;letter-spacing:0px;word-spacing:0px;fill:#000000;fill-opacity:1;stroke:none;stroke-width:1px;stroke-linecap:butt;stroke-linejoin:miter;stroke-opacity:1"><flowRegion
         id="flowRegion4347"><rect
           id="rect4349"
           width="93"
           height="103"
           x="-257"
           y="334" /></flowRegion><flowPara
         id="flowPara4351"
         style="font-size:40px;line-height:1.25"> </flowPara></flowRoot>
    <rect
       style="fill:#b2b2b2;fill-opacity:1;stroke:none"
       id="rect3812-2"
       width="86.00132"
       height="86.00132"
       x="731.89478"
       y="97.248291"
       ry="5"
       rx="5" />
    <rect
       style="fill:#e2e2e2;fill-opacity:1;stroke:none"
       id="rect3812-2-9"
       width="86.00132"
       height="86.00132"
       x="861.43231"
       y="97.623672"
       ry="5"
       rx="5" />
    <rect
       style="fill:#111111;fill-opacity:1;stroke:none"
       id="rect3812-2-3"
       width="86.00132"
       height="86.00132"
       x="604.33392"
       y="96.872917"
       ry="5"
       rx="5" />
    <rect
       style="fill:#63a0ff;fill-opacity:1;stroke:none;stroke-opacity:1"
       id="rect3812-2-94"
       width="86.00132"
       height="86.00132"
       x="731.89478"
       y="231.10309"
       ry="5"
       rx="5" />
    <rect
       style="fill:#4c609f;fill-opacity:1;stroke:none;stroke-opacity:1"
       id="rect3812-2-3-6"
       width="86.00132"
       height="86.00132"
       x="604.33392"
       y="231.10309"
       ry="5"
       rx="5" />
    <text
       xml:space="preserve"
       style="font-style:normal;font-variant:normal;font-weight:normal;font-stretch:normal;font-size:28px;line-height:0%;font-family:'Ostrich Sans';-inkscape-font-specification:'Ostrich Sans';text-align:start;letter-spacing:0px;word-spacing:0px;text-anchor:start;fill:#111111;fill-opacity:1;stroke:none;stroke-width:1px;stroke-linecap:butt;stroke-linejoin:miter;stroke-opacity:1"
       x="603.95892"
       y="577.34082"
       id="text4662-5-4-9-5"><tspan
         sodipodi:role="line"
         x="603.95892"
         y="577.34082"
         style="font-style:normal;font-variant:normal;font-weight:300;font-stretch:normal;font-size:28px;line-height:1.25;font-family:Montserrat;-inkscape-font-specification:'Montserrat Light';text-align:start;text-anchor:start;fill:#111111;fill-opacity:1"
         id="tspan4200-2">MONTSERRAT LIGHT</tspan></text>
    <text
       xml:space="preserve"
       style="font-style:normal;font-weight:normal;font-size:18px;line-height:0%;font-family:sans-serif;letter-spacing:0px;word-spacing:0px;fill:#111111;fill-opacity:1;stroke:none;stroke-width:1px;stroke-linecap:butt;stroke-linejoin:miter;stroke-opacity:1"
       x="604.13617"
       y="612.96875"
       id="text4301"><tspan
         sodipodi:role="line"
         x="604.13617"
         y="612.96875"
         id="tspan4321"
         style="font-style:normal;font-variant:normal;font-weight:normal;font-stretch:normal;font-size:17.3333px;line-height:135%;font-family:'Source Sans Pro';-inkscape-font-specification:'Source Sans Pro';fill:#111111;fill-opacity:1">Wes Anderson forage bicycle rights. Lo-fi fashion axe</tspan><tspan
         sodipodi:role="line"
         x="604.13617"
         y="636.36871"
         style="font-style:normal;font-variant:normal;font-weight:normal;font-stretch:normal;font-size:17.3333px;line-height:135%;font-family:'Source Sans Pro';-inkscape-font-specification:'Source Sans Pro';fill:#111111;fill-opacity:1"
         id="tspan4425">kitsch, selfies pitchfork PBR direct trade Banksy kale </tspan><tspan
         sodipodi:role="line"
         x="604.13617"
         y="659.76868"
         id="tspan4323"
         style="font-style:normal;font-variant:normal;font-weight:normal;font-stretch:normal;font-size:17.3333px;line-height:135%;font-family:'Source Sans Pro';-inkscape-font-specification:'Source Sans Pro';fill:#111111;fill-opacity:1">chips blog asymmetrical twee actually blue bottle.</tspan><tspan
         sodipodi:role="line"
         x="604.13617"
         y="683.16864"
         id="tspan4325"
         style="font-style:normal;font-variant:normal;font-weight:normal;font-stretch:normal;font-size:17.3333px;line-height:135%;font-family:'Source Sans Pro';-inkscape-font-specification:'Source Sans Pro';fill:#111111;fill-opacity:1">Blue bottle yr selfies tousled, tofu mixtape helvetica</tspan><tspan
         sodipodi:role="line"
         x="604.13617"
         y="706.56854"
         id="tspan4327"
         style="font-style:normal;font-variant:normal;font-weight:normal;font-stretch:normal;font-size:17.3333px;line-height:135%;font-family:'Source Sans Pro';-inkscape-font-specification:'Source Sans Pro';fill:#111111;fill-opacity:1">authentic typewriter wolf!</tspan></text>
    <text
       xml:space="preserve"
       style="font-style:normal;font-weight:normal;font-size:18px;line-height:0%;font-family:sans-serif;letter-spacing:0px;word-spacing:0px;fill:#111111;fill-opacity:1;stroke:none;stroke-width:1px;stroke-linecap:butt;stroke-linejoin:miter;stroke-opacity:1"
       x="97.016602"
       y="615.96704"
       id="text4301-5"><tspan
         sodipodi:role="line"
         x="97.016602"
         y="615.96704"
         id="tspan4313-3"
         style="font-style:normal;font-variant:normal;font-weight:normal;font-stretch:normal;font-size:17.3333px;line-height:135%;font-family:'Source Sans Pro';-inkscape-font-specification:'Source Sans Pro';fill:#111111;fill-opacity:1">Sustainable church-key Schlitz Godard. Flannel ennui</tspan><tspan
         sodipodi:role="line"
         x="97.016602"
         y="639.367"
         id="tspan4315-9"
         style="font-style:normal;font-variant:normal;font-weight:normal;font-stretch:normal;font-size:17.3333px;line-height:135%;font-family:'Source Sans Pro';-inkscape-font-specification:'Source Sans Pro';fill:#111111;fill-opacity:1">master cleanse +1 Pinterest. Farm-to-table Portland </tspan><tspan
         sodipodi:role="line"
         x="97.016602"
         y="662.76697"
         style="font-style:normal;font-variant:normal;font-weight:normal;font-stretch:normal;font-size:17.3333px;line-height:135%;font-family:'Source Sans Pro';-inkscape-font-specification:'Source Sans Pro';fill:#111111;fill-opacity:1"
         id="tspan4402">+1, Echo Park fingerstache ennui tousled photo booth </tspan><tspan
         sodipodi:role="line"
         x="97.016602"
         y="686.16693"
         id="tspan4317-1"
         style="font-style:normal;font-variant:normal;font-weight:normal;font-stretch:normal;font-size:17.3333px;line-height:135%;font-family:'Source Sans Pro';-inkscape-font-specification:'Source Sans Pro';fill:#111111;fill-opacity:1">single-origin coffee hella 8-bit. Odd Future next level</tspan><tspan
         sodipodi:role="line"
         x="97.016602"
         y="709.56683"
         style="font-style:normal;font-variant:normal;font-weight:normal;font-stretch:normal;font-size:17.3333px;line-height:135%;font-family:'Source Sans Pro';-inkscape-font-specification:'Source Sans Pro';fill:#111111;fill-opacity:1"
         id="tspan4412">hoodie keffiyeh, art party meh stumptown.</tspan></text>
    <text
       xml:space="preserve"
       style="font-style:normal;font-variant:normal;font-weight:normal;font-stretch:normal;font-size:32px;line-height:0%;font-family:'Ostrich Sans';-inkscape-font-specification:'Ostrich Sans';text-align:start;letter-spacing:0px;word-spacing:0px;text-anchor:start;fill:#111111;fill-opacity:1;stroke:none;stroke-width:1px;stroke-linecap:butt;stroke-linejoin:miter;stroke-opacity:1"
       x="603.85394"
       y="69.96875"
       id="text4662-5-4-9-5-7"><tspan
         sodipodi:role="line"
         x="603.85394"
         y="69.96875"
         style="font-style:normal;font-variant:normal;font-weight:300;font-stretch:normal;font-size:32px;line-height:1.25;font-family:Montserrat;-inkscape-font-specification:'Montserrat Light';text-align:start;text-anchor:start;fill:#111111;fill-opacity:1"
         id="tspan4200-2-8">COLOR PALATE</tspan></text>
    <text
       xml:space="preserve"
       style="font-style:normal;font-variant:normal;font-weight:normal;font-stretch:normal;font-size:32px;line-height:0%;font-family:'Ostrich Sans';-inkscape-font-specification:'Ostrich Sans';text-align:start;letter-spacing:0px;word-spacing:0px;text-anchor:start;fill:#111111;fill-opacity:1;stroke:none;stroke-width:1px;stroke-linecap:butt;stroke-linejoin:miter;stroke-opacity:1"
       x="604.14642"
       y="413.65625"
       id="text4662-5-4-9-5-5"><tspan
         sodipodi:role="line"
         x="604.14642"
         y="413.65625"
         style="font-style:normal;font-variant:normal;font-weight:300;font-stretch:normal;font-size:32px;line-height:1.25;font-family:Montserrat;-inkscape-font-specification:'Montserrat Light';text-align:start;text-anchor:start;fill:#111111;fill-opacity:1"
         id="tspan4200-2-6">TEXT &amp; FONTS</tspan></text>
    <g
       id="g4629"
       transform="translate(46,-34)"
       style="fill:#111111;fill-opacity:1">
      <text
         id="text4662-5-4-9-4"
         y="481.96875"
         x="557.31708"
         style="font-style:normal;font-variant:normal;font-weight:bold;font-stretch:normal;font-size:18px;line-height:0%;font-family:'Open Sans';-inkscape-font-specification:'Open Sans Bold';text-align:start;letter-spacing:0px;word-spacing:0px;text-anchor:start;fill:#111111;fill-opacity:1;stroke:none;stroke-width:1px;stroke-linecap:butt;stroke-linejoin:miter;stroke-opacity:1"
         xml:space="preserve"><tspan
           id="tspan4200-7"
           style="font-style:normal;font-variant:normal;font-weight:bold;font-stretch:normal;font-size:17.3333px;line-height:1.25;font-family:'Source Sans Pro';-inkscape-font-specification:'Source Sans Pro Bold';text-align:start;text-anchor:start;fill:#111111;fill-opacity:1"
           y="481.96875"
           x="557.31708"
           sodipodi:role="line">Source Sans Pro Bold</tspan></text>
      <text
         id="text4662-5-4-9-4-0"
         y="481.96875"
         x="740.81116"
         style="font-style:normal;font-variant:normal;font-weight:bold;font-stretch:normal;font-size:18px;line-height:0%;font-family:'Open Sans';-inkscape-font-specification:'Open Sans Bold';text-align:start;letter-spacing:0px;word-spacing:0px;text-anchor:start;fill:#111111;fill-opacity:1;stroke:none;stroke-width:1px;stroke-linecap:butt;stroke-linejoin:miter;stroke-opacity:1"
         xml:space="preserve"><tspan
           id="tspan4200-7-36"
           style="font-style:italic;font-variant:normal;font-weight:bold;font-stretch:normal;font-size:17.3333px;line-height:1.25;font-family:'Source Sans Pro';-inkscape-font-specification:'Source Sans Pro Bold Italic';text-align:start;text-anchor:start;fill:#111111;fill-opacity:1"
           y="481.96875"
           x="740.81116"
           sodipodi:role="line">Bold Italic</tspan></text>
      <text
         id="text4662-5-4-9-4-0-2"
         y="481.96875"
         x="838.1676"
         style="font-style:normal;font-variant:normal;font-weight:normal;font-stretch:normal;font-size:18px;line-height:0%;font-family:'Open Sans';-inkscape-font-specification:'Open Sans';text-align:start;letter-spacing:0px;word-spacing:0px;text-anchor:start;fill:#111111;fill-opacity:1;stroke:none;stroke-width:1px;stroke-linecap:butt;stroke-linejoin:miter;stroke-opacity:1"
         xml:space="preserve"><tspan
           id="tspan4200-7-36-7"
           style="font-style:normal;font-variant:normal;font-weight:normal;font-stretch:normal;font-size:17.3333px;line-height:1.25;font-family:'Source Sans Pro';-inkscape-font-specification:'Source Sans Pro';text-align:start;text-anchor:start;fill:#111111;fill-opacity:1"
           y="481.96875"
           x="838.1676"
           sodipodi:role="line">Normal</tspan></text>
      <text
         id="text4662-5-4-9-4-0-2-8"
         y="481.96875"
         x="907.58459"
         style="font-style:normal;font-variant:normal;font-weight:normal;font-stretch:normal;font-size:18px;line-height:0%;font-family:'Open Sans';-inkscape-font-specification:'Open Sans';text-align:start;letter-spacing:0px;word-spacing:0px;text-anchor:start;fill:#111111;fill-opacity:1;stroke:none;stroke-width:1px;stroke-linecap:butt;stroke-linejoin:miter;stroke-opacity:1"
         xml:space="preserve"><tspan
           id="tspan4200-7-36-7-7"
           style="font-style:italic;font-variant:normal;font-weight:normal;font-stretch:normal;font-size:17.3333px;line-height:1.25;font-family:'Source Sans Pro';-inkscape-font-specification:'Source Sans Pro Italic';text-align:start;text-anchor:start;fill:#111111;fill-opacity:1"
           y="481.96875"
           x="907.58459"
           sodipodi:role="line">Italic</tspan></text>
    </g>
    <rect
       style="fill:#e2e2e2;fill-opacity:1;stroke:none;stroke-width:7.17525;stroke-linecap:round;stroke-miterlimit:1.41421;stroke-dasharray:none;stroke-dashoffset:1.2;stroke-opacity:1"
       id="rect4189"
       width="455.66037"
       height="436.1434"
       x="57"
       y="48"
       ry="5"
       rx="5" />
    <g
       transform="translate(22,-38)"
       style="font-style:normal;font-variant:normal;font-weight:bold;font-stretch:normal;font-size:100px;line-height:1.25;font-family:Montserrat;-inkscape-font-specification:'Montserrat Bold';letter-spacing:0px;word-spacing:0px;stroke-width:0.999999"
       id="text82-0-1-6-7-4"
       aria-label="AQUA">
      <path
         d="m 223.52734,320.97461 c -21.7,0 -37.89843,15.1 -37.89843,35.5 0,17.92617 12.3406,31.86099 29.89843,35.15625 V 404 h 16 v -12.39258 c 17.5819,-3.23917 29.90039,-17.20573 29.90039,-35.13281 0,-20.3 -16.20039,-35.5 -37.90039,-35.5 z m 0.20118,15.59961 c 10.5,0 18.90039,8.6 18.90039,20 0,8.4446 -4.52765,15.34244 -11.10157,18.47266 v -13.8125 h -16 v 13.62304 c -6.47535,-3.15837 -11.09961,-10.0651 -11.09961,-18.2832 0,-11.4 8.80079,-20 19.30079,-20 z"
         style="font-variation-settings:normal;opacity:1;vector-effect:none;fill:#111111;fill-opacity:1;fill-rule:evenodd;stroke-width:2.70427;stroke-linecap:square;stroke-linejoin:miter;stroke-miterlimit:4;stroke-dasharray:none;stroke-dashoffset:0;stroke-opacity:1;paint-order:stroke markers fill;stop-color:#000000;stop-opacity:1"
         id="rect1296" />
      <path
         id="path1270"
         style="font-style:normal;font-variant:normal;font-weight:bold;font-stretch:normal;font-size:100px;font-family:'Montserrat Alternates';-inkscape-font-specification:'Montserrat Alternates Bold';fill:#111111;fill-opacity:1;stroke-width:0.999999"
         d="m 145.05643,320.77367 c -19.8,0 -32.3,11.9 -32.3,30.3 v 40.5 h 18.3 v -16.5 h 28.4 v 16.5 h 18.3 v -40.5 c 0,-18.4 -12.6,-30.3 -32.7,-30.3 z m 0.2,15.6 c 8.7,0 14.2,5.7 14.2,14.7 v 10 h -28.4 v -10 c 0,-9 5.4,-14.7 14.2,-14.7 z" />
      <path
         id="path1276"
         style="font-style:normal;font-variant:normal;font-weight:bold;font-stretch:normal;font-size:100px;font-family:'Montserrat Alternates';-inkscape-font-specification:'Montserrat Alternates Bold';fill:#111111;fill-opacity:1;stroke-width:0.999999"
         d="m 378.25956,320.77367 c -19.8,0 -32.3,11.9 -32.3,30.3 v 40.5 h 18.3 v -16.5 h 28.4 v 16.5 h 18.3 v -40.5 c 0,-18.4 -12.6,-30.3 -32.7,-30.3 z m 0.2,15.6 c 8.7,0 14.2,5.7 14.2,14.7 v 10 h -28.4 v -10 c 0,-9 5.4,-14.7 14.2,-14.7 z" />
      <path
         sodipodi:nodetypes="ssccccccsssccs"
         d="m 303.20987,391.54497 c -19.8,0 -32.3,-9.9 -32.3,-28.3 v -42.5 h 18.3 v 42.5 h 28.4 v -42.5 h 18.3 v 42.5 c 0,18.4 -12.6,28.3 -32.7,28.3 z m 0.2,-15.6 c 8.7,0 14.11038,-5.52453 14.2,-12.7 h -28.4 c 0.0387,7.12736 5.4,12.7 14.2,12.7 z"
         style="font-style:normal;font-variant:normal;font-weight:bold;font-stretch:normal;font-size:100px;line-height:1.25;font-family:'Montserrat Alternates';-inkscape-font-specification:'Montserrat Alternates Bold';letter-spacing:0px;word-spacing:0px;display:inline;fill:#111111;fill-opacity:1;stroke-width:0.999999"
         id="path1276-5" />
    </g>
    <text
       id="text282"
       y="408.20926"
       x="98.692436"
       style="font-weight:bold;font-size:18px;line-height:1.25;font-family:Roboto;-inkscape-font-specification:'Roboto Bold';letter-spacing:8.55001px;word-spacing:0px;stroke-width:0.999999"
       xml:space="preserve"
       inkscape:export-filename="/home/user/designs/PersonalKnowledgeContainer/pngs/branding-1.png"
       inkscape:export-xdpi="96"
       inkscape:export-ydpi="96"><tspan
         dx="0 0 0 0 0 0 0 0 0 0 0 0 0 0"
         style="font-style:normal;font-variant:normal;font-weight:600;font-stretch:normal;font-size:17.3333px;font-family:'Source Sans Pro';-inkscape-font-specification:'Source Sans Pro Semi-Bold';stroke-width:0.999999"
         y="408.20926"
         x="98.692436"
         id="tspan280"
         sodipodi:role="line">TRUSTED DATA PROTOCOL</tspan></text>
    <text
       xml:space="preserve"
       style="font-weight:bold;font-size:32px;line-height:1.25;font-family:Roboto;-inkscape-font-specification:'Roboto Bold';letter-spacing:0px;word-spacing:0px;stroke-width:0.999999"
       x="116.79747"
       y="575.74731"
       id="text286-6-6-5-4-8-3-2"><tspan
         sodipodi:role="line"
         id="tspan284-5-8-5-1-2-5-7"
         x="116.79747"
         y="575.74731"
         style="font-style:normal;font-variant:normal;font-weight:bold;font-stretch:normal;font-size:32px;font-family:Montserrat;-inkscape-font-specification:'Montserrat Bold';stroke-width:0.999999">MONTSERRAT BOLD</tspan></text>
    <path
       sodipodi:nodetypes="ccccccccccc"
       id="path6155"
       d="m 254.54297,196.16591 2.33584,9.96432 10.30358,3.77393 2.38436,16.31207 12.59542,2.39876 14.65654,-0.92283 0.89691,-7.67565 3.26688,-6.52594 14.6368,-4.94679 0.51857,-13.15922 z"
       style="fill:#4c609f;fill-opacity:1;stroke:#4c609f;stroke-width:1.10015px;stroke-linecap:butt;stroke-linejoin:miter;stroke-opacity:1"
       inkscape:export-filename="/home/user/designs/PersonalKnowledgeContainer/pngs/branding-1.png"
       inkscape:export-xdpi="96"
       inkscape:export-ydpi="96" />
    <rect
       x="-287.48553"
       y="203.67824"
       width="13.447025"
       height="2.5646601"
       id="rect4777"
       transform="scale(-1,1)"
       style="stroke-width:1.02586"
       inkscape:export-filename="/home/user/designs/PersonalKnowledgeContainer/pngs/branding-1.png"
       inkscape:export-xdpi="96"
       inkscape:export-ydpi="96" />
    <rect
       x="-84.305984"
       y="318.48978"
       transform="matrix(-0.70710678,0.70710678,0.70710678,0.70710678,0,0)"
       width="2.5646353"
       height="13.639756"
       id="rect4785"
       style="stroke-width:1.02585"
       inkscape:export-filename="/home/user/designs/PersonalKnowledgeContainer/pngs/branding-1.png"
       inkscape:export-xdpi="96"
       inkscape:export-ydpi="96" />
    <rect
       x="-335.78714"
       y="-80.253799"
       transform="matrix(-0.70710678,-0.70710678,-0.70710678,0.70710678,0,0)"
       width="13.639756"
       height="2.5646353"
       id="rect4787"
       style="stroke-width:1.02585"
       inkscape:export-filename="/home/user/designs/PersonalKnowledgeContainer/pngs/branding-1.png"
       inkscape:export-xdpi="96"
       inkscape:export-ydpi="96" />
    <rect
       x="-69.849579"
       y="317.67181"
       transform="matrix(-0.70710678,0.70710678,0.70710678,0.70710678,0,0)"
       width="2.5646353"
       height="13.639756"
       id="rect4789"
       style="stroke-width:1.02585"
       inkscape:export-filename="/home/user/designs/PersonalKnowledgeContainer/pngs/branding-1.png"
       inkscape:export-xdpi="96"
       inkscape:export-ydpi="96" />
    <rect
       x="63.231766"
       y="-334.96954"
       transform="matrix(0.70710678,-0.70710678,-0.70710678,-0.70710678,0,0)"
       width="2.5646353"
       height="13.639756"
       id="rect4791"
       style="stroke-width:1.02585"
       inkscape:export-filename="/home/user/designs/PersonalKnowledgeContainer/pngs/branding-1.png"
       inkscape:export-xdpi="96"
       inkscape:export-ydpi="96" />
    <path
       sodipodi:nodetypes="ccccccccccccccccccccccccccccccccccccccccccccccccccccccccccccccccccccccccccccc"
       d="m 256.11973,183.99602 7.63942,-3.37099 2.62314,-14.70474 16.33194,-18.17644 19.58804,12.65729 -2.20253,9.39487 3.91777,6.83123 13.14934,5.13957 v 12.84998 l 9.87899,-0.15645 -1.05219,2.72111 h -8.8268 v 6.49679 h 7.57751 l -1.85879,2.56466 h -5.71872 v 3.27559 l -15.41669,5.13855 -2.39949,4.18552 h 7.73269 l -2.2003,2.56466 h -6.32507 l 0.309,7.40315 -16.00147,1.46219 -14.21588,-3.17388 -1.85579,-12.13593 h -10.54393 l -2.20029,-2.56466 h 12.28668 l -0.30981,-1.73782 -9.90677,-3.37099 -0.58064,-1.90092 h -8.09034 l -2.20029,-2.56466 h 9.50585 l -1.72653,-5.64225 h -10.28813 l -1.58004,-2.56466 h 11.71121 z m 1.31516,18.82768 h 4.93338 v 2.56466 h -3.87161 l 9.78879,3.332 0.65656,3.67773 h 5.97463 v 2.56466 h -5.5171 l 1.51672,10.02698 12.46648,2.23859 12.57169,-0.86346 -0.7739,-4.95764 h -4.51118 v -2.56466 h 5.72478 l 3.61822,-6.30906 14.58984,-4.86362 v -1.42698 h -14.61856 v -2.56466 h 14.61856 v -6.49679 h -58.89178 z m 57.1673,-8.20691 v -11.00137 l -12.32249,-4.86362 -4.90774,-8.55673 2.00659,-8.55673 -16.15549,-10.59839 -14.4423,16.0406 -2.76265,15.48644 -7.83024,3.43562 -2.63441,8.6152 h 59.04873 z"
       id="path4811"
       style="stroke-width:1.02586"
       inkscape:export-filename="/home/user/designs/PersonalKnowledgeContainer/pngs/branding-1.png"
       inkscape:export-xdpi="96"
       inkscape:export-ydpi="96" />
    <rect
       style="stroke-width:1.02586"
       id="rect4777-3"
       height="2.5646601"
       width="13.447025"
       y="212.26196"
       x="-294.33871"
       transform="scale(-1,1)"
       inkscape:export-filename="/home/user/designs/PersonalKnowledgeContainer/pngs/branding-1.png"
       inkscape:export-xdpi="96"
       inkscape:export-ydpi="96" />
    <path
       d="m 284.57031,249.57032 c -34.51779,0 -62.50001,-27.98223 -62.50001,-62.50001 0,-34.51778 27.98222,-62.50001 62.50001,-62.50001 34.51778,0 62.5,27.98223 62.5,62.50001 -0.0378,34.50285 -27.99715,62.46392 -62.5,62.50001 z m 0,-122.27075 c -33.01047,0 -59.77074,26.76027 -59.77074,59.77074 0,33.01047 26.76027,59.77074 59.77074,59.77074 33.01047,0 59.77073,-26.76027 59.77073,-59.77074 -0.0378,-32.9955 -26.77523,-59.73465 -59.77073,-59.77074 z"
       id="path1156-3-1"
       style="fill:#000000;fill-rule:nonzero;stroke:none;stroke-width:0.545851"
       inkscape:export-filename="/home/user/designs/PersonalKnowledgeContainer/pngs/branding-1.png"
       inkscape:export-xdpi="96"
       inkscape:export-ydpi="96" />
    <path
       d="m 284.56759,242.30788 c -3.22946,-0.001 -6.45279,-0.28044 -9.63428,-0.83512 -0.49868,-0.0635 -0.92206,-0.39591 -1.102,-0.86529 -0.17991,-0.46938 -0.0873,-0.99964 0.24113,-1.38017 0.32844,-0.38052 0.83955,-0.54962 1.33013,-0.44016 6.08077,1.05626 12.29809,1.05626 18.37882,0 0.74313,-0.12964 1.45062,0.36775 1.58026,1.1108 0.12964,0.74313 -0.36775,1.45062 -1.1108,1.58026 -3.19782,0.55555 -6.43771,0.83316 -9.68342,0.82968 z m -27.11244,-7.2489 c -0.23925,-1.9e-4 -0.47422,-0.0624 -0.68232,-0.18029 -5.61158,-3.24865 -10.61375,-7.451 -14.78166,-12.41809 -0.48537,-0.57733 -0.41083,-1.43879 0.1663,-1.92416 0.57728,-0.48537 1.43875,-0.4108 1.92412,0.1663 3.96159,4.72588 8.71831,8.72337 14.05568,11.81224 0.53201,0.30992 0.79049,0.93789 0.63096,1.53259 -0.1595,0.5947 -0.69755,1.00895 -1.31327,1.01106 z m 54.26857,0 c -0.62056,0.004 -1.1661,-0.40997 -1.32775,-1.0091 -0.16176,-0.59913 0.10129,-1.2319 0.63995,-1.54001 5.34402,-3.08836 10.10649,-7.0879 14.07205,-11.81771 0.30727,-0.39217 0.80394,-0.58568 1.29558,-0.5048 0.49161,0.0809 0.9001,0.4232 1.06564,0.89314 0.16554,0.46991 0.062,0.99273 -0.27061,1.36384 -4.17204,4.96431 -9.17787,9.16294 -14.79258,12.40722 -0.20712,0.12132 -0.44243,0.18519 -0.68228,0.18557 z m -78.15504,-28.38426 c -0.57596,-0.001 -1.08922,-0.36359 -1.28277,-0.90614 -2.22372,-6.09562 -3.35996,-12.53435 -3.35698,-19.02293 -0.001,-0.36132 0.14098,-0.70851 0.39617,-0.96461 0.25512,-0.25625 0.60159,-0.39999 0.96303,-0.39999 0.75239,0.003 1.36161,0.61221 1.3646,1.3646 -0.002,6.17027 1.07841,12.29303 3.19324,18.08954 0.25663,0.70688 -0.10733,1.488 -0.81331,1.7467 -0.14967,0.0491 -0.30652,0.0714 -0.46398,0.0654 z m 102.01965,-0.0548 c -0.16025,0.003 -0.31937,-0.0265 -0.46945,-0.082 -0.34092,-0.1217 -0.6189,-0.37531 -0.77171,-0.70337 -0.15269,-0.32806 -0.16781,-0.70401 -0.0416,-1.04334 2.11223,-5.80996 3.1875,-11.94576 3.17684,-18.12775 v -0.12019 c 0,-0.75368 0.611,-1.36464 1.36464,-1.36464 0.75367,0 1.36464,0.61096 1.36464,1.36464 v 0.12018 c 0.008,6.49115 -1.1226,12.9334 -3.34062,19.03386 -0.19842,0.53714 -0.71009,0.89419 -1.28273,0.89518 z M 233.53047,169.51841 c -0.44598,4.6e-4 -0.86407,-0.21694 -1.11968,-0.58254 -0.2555,-0.36548 -0.31635,-0.83278 -0.1629,-1.25155 2.21423,-6.09967 5.48054,-11.76397 9.65068,-16.73579 0.48386,-0.57884 1.34529,-0.65579 1.92412,-0.17197 0.5788,0.48382 0.65579,1.34529 0.17197,1.92413 -3.96922,4.72682 -7.0769,10.11443 -9.18123,15.91702 -0.1954,0.54032 -0.70817,0.9004 -1.28273,0.90066 z m 102.01965,-0.16365 c -0.57365,0.002 -1.08691,-0.35603 -1.28277,-0.89518 -2.12137,-5.79232 -5.24379,-11.16696 -9.22488,-15.87886 -0.31484,-0.3753 -0.4057,-0.8903 -0.23811,-1.35076 0.16781,-0.46043 0.56821,-0.79651 1.05078,-0.88155 0.48257,-0.085 0.97387,0.0937 1.28882,0.46923 4.18579,4.9572 7.46884,10.61066 9.69978,16.70306 0.26079,0.70693 -0.10091,1.49129 -0.80784,1.75219 -0.15609,0.0548 -0.3205,0.0828 -0.48582,0.082 z m -78.18776,-28.3024 c -0.61576,-0.002 -1.15378,-0.41639 -1.31331,-1.0111 -0.1595,-0.59471 0.099,-1.22256 0.63099,-1.5326 5.60882,-3.26615 11.75168,-5.51338 18.14411,-6.63753 0.48068,-0.0847 0.97013,0.0934 1.28398,0.46711 0.3137,0.3738 0.40434,0.8868 0.23736,1.34555 -0.16706,0.45873 -0.56584,0.79355 -1.04655,0.87837 -6.07635,1.0682 -11.91591,3.20262 -17.2489,6.30459 -0.20901,0.12132 -0.44617,0.18557 -0.68776,0.18557 z m 54.26309,-0.082 c -0.23811,-2.3e-4 -0.47187,-0.0643 -0.67688,-0.18557 -5.34663,-3.08368 -11.19473,-5.2012 -17.27618,-6.25546 -0.71149,-0.15874 -1.1726,-0.84873 -1.04704,-1.56684 0.12548,-0.71811 0.79328,-1.21077 1.51646,-1.11874 6.3939,1.09629 12.54376,3.31378 18.16596,6.55019 0.53775,0.30765 0.8008,0.93891 0.64059,1.53736 -0.16025,0.59845 -0.70341,1.01393 -1.32291,1.01178 z"
       id="path1158-8-6"
       style="fill:#000000;fill-rule:nonzero;stroke:none;stroke-width:0.545851"
       inkscape:export-filename="/home/user/designs/PersonalKnowledgeContainer/pngs/branding-1.png"
       inkscape:export-xdpi="96"
       inkscape:export-ydpi="96" />
    <path
       d="m 284.57031,235.46006 c -26.72493,0 -48.38975,-21.66482 -48.38975,-48.38975 0,-26.72492 21.66482,-48.38975 48.38975,-48.38975 26.72492,0 48.38974,21.66483 48.38974,48.38975 -0.0302,26.71245 -21.67729,48.35966 -48.38974,48.38975 z m 0,-94.05023 c -25.21758,0 -45.66047,20.44291 -45.66047,45.66048 0,25.21758 20.44289,45.66048 45.66047,45.66048 25.21757,0 45.66047,-20.4429 45.66047,-45.66048 -0.0265,-25.20635 -20.45412,-45.63342 -45.66047,-45.66048 z"
       id="path1160-5-5"
       style="fill:#000000;fill-rule:nonzero;stroke:none;stroke-width:0.545851"
       inkscape:export-filename="/home/user/designs/PersonalKnowledgeContainer/pngs/branding-1.png"
       inkscape:export-xdpi="96"
       inkscape:export-ydpi="96" />
    <text
       xml:space="preserve"
       style="font-style:normal;font-variant:normal;font-weight:normal;font-stretch:normal;font-size:13px;line-height:0%;font-family:'Open Sans';-inkscape-font-specification:'Open Sans';text-align:start;letter-spacing:0px;word-spacing:0px;text-anchor:start;display:inline;fill:#111111;fill-opacity:1;stroke:none;stroke-width:1px;stroke-linecap:butt;stroke-linejoin:miter;stroke-opacity:1"
       x="619.7301"
       y="206.15848"
       id="text4662-5-4-9-4-0-2-3"><tspan
         sodipodi:role="line"
         x="619.7301"
         y="206.15848"
         style="font-style:normal;font-variant:normal;font-weight:normal;font-stretch:normal;font-size:13px;line-height:1.25;font-family:monospace;-inkscape-font-specification:monospace;text-align:start;text-anchor:start;fill:#111111;fill-opacity:1"
         id="tspan4200-7-36-7-5">#111111</tspan></text>
    <text
       id="text4662-5-4-9-4-0-2-3-6"
       y="207.15048"
       x="745.7807"
       style="font-style:normal;font-variant:normal;font-weight:normal;font-stretch:normal;font-size:13px;line-height:0%;font-family:'Open Sans';-inkscape-font-specification:'Open Sans';text-align:start;letter-spacing:0px;word-spacing:0px;text-anchor:start;display:inline;fill:#111111;fill-opacity:1;stroke:none;stroke-width:1px;stroke-linecap:butt;stroke-linejoin:miter;stroke-opacity:1"
       xml:space="preserve"><tspan
         id="tspan4200-7-36-7-5-2"
         style="font-style:normal;font-variant:normal;font-weight:normal;font-stretch:normal;font-size:13px;line-height:1.25;font-family:monospace;-inkscape-font-specification:monospace;text-align:start;text-anchor:start;fill:#111111;fill-opacity:1"
         y="207.15048"
         x="745.7807"
         sodipodi:role="line">#B2B2B2</tspan></text>
    <text
       xml:space="preserve"
       style="font-style:normal;font-variant:normal;font-weight:normal;font-stretch:normal;font-size:13px;line-height:0%;font-family:'Open Sans';-inkscape-font-specification:'Open Sans';text-align:start;letter-spacing:0px;word-spacing:0px;text-anchor:start;display:inline;fill:#111111;fill-opacity:1;stroke:none;stroke-width:1px;stroke-linecap:butt;stroke-linejoin:miter;stroke-opacity:1"
       x="876.72449"
       y="206.15848"
       id="text4662-5-4-9-4-0-2-3-6-9"><tspan
         sodipodi:role="line"
         x="876.72449"
         y="206.15848"
         style="font-style:normal;font-variant:normal;font-weight:normal;font-stretch:normal;font-size:13px;line-height:1.25;font-family:monospace;-inkscape-font-specification:monospace;text-align:start;text-anchor:start;fill:#111111;fill-opacity:1"
         id="tspan4200-7-36-7-5-2-1">#E2E2E2</tspan></text>
    <text
       id="text4662-5-4-9-4-0-2-3-2"
       y="339.90988"
       x="621.48108"
       style="font-style:normal;font-variant:normal;font-weight:normal;font-stretch:normal;font-size:13px;line-height:0%;font-family:'Open Sans';-inkscape-font-specification:'Open Sans';text-align:start;letter-spacing:0px;word-spacing:0px;text-anchor:start;display:inline;fill:#111111;fill-opacity:1;stroke:none;stroke-width:1px;stroke-linecap:butt;stroke-linejoin:miter;stroke-opacity:1"
       xml:space="preserve"><tspan
         id="tspan4200-7-36-7-5-7"
         style="font-style:normal;font-variant:normal;font-weight:normal;font-stretch:normal;font-size:13px;line-height:1.25;font-family:monospace;-inkscape-font-specification:monospace;text-align:start;text-anchor:start;fill:#111111;fill-opacity:1"
         y="339.90988"
         x="621.48108"
         sodipodi:role="line">#4C609F</tspan></text>
    <text
       xml:space="preserve"
       style="font-style:normal;font-variant:normal;font-weight:normal;font-stretch:normal;font-size:13px;line-height:0%;font-family:'Open Sans';-inkscape-font-specification:'Open Sans';text-align:start;letter-spacing:0px;word-spacing:0px;text-anchor:start;display:inline;fill:#111111;fill-opacity:1;stroke:none;stroke-width:1px;stroke-linecap:butt;stroke-linejoin:miter;stroke-opacity:1"
       x="747.53168"
       y="340.90189"
       id="text4662-5-4-9-4-0-2-3-6-0"><tspan
         sodipodi:role="line"
         x="747.53168"
         y="340.90189"
         style="font-style:normal;font-variant:normal;font-weight:normal;font-stretch:normal;font-size:13px;line-height:1.25;font-family:monospace;-inkscape-font-specification:monospace;text-align:start;text-anchor:start;fill:#111111;fill-opacity:1"
         id="tspan4200-7-36-7-5-2-9">#63A0FF</tspan></text>
    <text
       id="text4662-5-4-9-4-0-2-3-6-9-3"
       y="339.90988"
       x="878.47546"
       style="font-style:normal;font-variant:normal;font-weight:normal;font-stretch:normal;font-size:13px;line-height:0%;font-family:'Open Sans';-inkscape-font-specification:'Open Sans';text-align:start;letter-spacing:0px;word-spacing:0px;text-anchor:start;display:inline;fill:#111111;fill-opacity:1;stroke:none;stroke-width:1px;stroke-linecap:butt;stroke-linejoin:miter;stroke-opacity:1"
       xml:space="preserve"><tspan
         id="tspan4200-7-36-7-5-2-1-6"
         style="font-style:normal;font-variant:normal;font-weight:normal;font-stretch:normal;font-size:13px;line-height:1.25;font-family:monospace;-inkscape-font-specification:monospace;text-align:start;text-anchor:start;fill:#111111;fill-opacity:1"
         y="339.90988"
         x="878.47546"
         sodipodi:role="line">#D8E4F9</tspan></text>
    <rect
       ry="5"
       rx="5"
       y="464.45697"
       x="604.33392"
       height="24.280684"
       width="148.18196"
       id="rect1404"
       style="font-variation-settings:normal;opacity:1;vector-effect:none;fill:#e2e2e2;fill-opacity:1;fill-rule:evenodd;stroke-width:3.21628;stroke-linecap:square;stroke-linejoin:miter;stroke-miterlimit:4;stroke-dasharray:none;stroke-dashoffset:0;stroke-opacity:1;paint-order:stroke markers fill;stop-color:#000000;stop-opacity:1" />
    <text
       xml:space="preserve"
       style="font-style:normal;font-variant:normal;font-weight:normal;font-stretch:normal;font-size:11px;line-height:0%;font-family:'Open Sans';-inkscape-font-specification:'Open Sans';text-align:start;letter-spacing:0px;word-spacing:0px;text-anchor:start;display:inline;fill:#111111;fill-opacity:1;stroke:none;stroke-width:1px;stroke-linecap:butt;stroke-linejoin:miter;stroke-opacity:1"
       x="616.63568"
       y="479.91858"
       id="text4662-5-4-9-4-0-2-3-6-1"><tspan
         sodipodi:role="line"
         x="616.63568"
         y="479.91858"
         style="font-style:normal;font-variant:normal;font-weight:normal;font-stretch:normal;font-size:11px;line-height:1.25;font-family:monospace;-inkscape-font-specification:monospace;text-align:start;text-anchor:start;fill:#111111;fill-opacity:1"
         id="tspan4200-7-36-7-5-2-3">monospace (generic)</tspan></text>
  </g>
</svg>
